<svg width="29" height="29" viewBox="0 0 29 29" fill="none" xmlns="http://www.w3.org/2000/svg">
<g id="account_svgrepo.com" clip-path="url(#clip0_60_514)">
<g id="Shopicon">
<path id="Vector" d="M18.897 15.4214C20.6286 14.0964 21.7499 12.0151 21.7499 9.66669C21.7499 5.66287 18.5037 2.41669 14.4999 2.41669C10.4961 2.41669 7.24992 5.66287 7.24992 9.66669C7.24992 12.0151 8.37125 14.0964 10.1028 15.4214C5.94492 17.2375 3.02075 21.5476 3.02075 26.5834H25.9791C25.9791 21.5476 23.0549 17.2375 18.897 15.4214ZM9.66659 9.66669C9.66659 7.00171 11.8349 4.83335 14.4999 4.83335C17.1649 4.83335 19.3333 7.00171 19.3333 9.66669C19.3333 12.3317 17.1649 14.5 14.4999 14.5C11.8349 14.5 9.66659 12.3317 9.66659 9.66669ZM14.4999 16.9167C18.7152 16.9167 22.2671 20.0022 23.2754 24.1667H5.7244C6.73275 20.0022 10.2846 16.9167 14.4999 16.9167Z" fill="white"/>
</g>
</g>
<defs>
<clipPath id="clip0_60_514">
<rect width="29" height="29" fill="white"/>
</clipPath>
</defs>
</svg>
