<svg width="23" height="23" viewBox="0 0 23 23" fill="none" xmlns="http://www.w3.org/2000/svg">
<g id="Icon-Set">
<path id="search" fill-rule="evenodd" clip-rule="evenodd" d="M9.67687 17.5789C5.15476 17.5789 1.48893 13.9769 1.48893 9.52643C1.48893 5.07597 5.15476 1.46674 9.67687 1.46674C14.199 1.46674 17.8656 5.07597 17.8656 9.52643C17.8656 13.9769 14.199 17.5789 9.67687 17.5789ZM22.7816 21.749L16.8439 15.9037C18.3983 14.2142 19.3538 11.9853 19.3538 9.52643C19.3538 4.26353 15.0214 0 9.67687 0C4.3323 0 0 4.26353 0 9.52643C0 14.7821 4.3323 19.0457 9.67687 19.0457C11.9861 19.0457 14.1041 18.2476 15.7677 16.9175L21.7291 22.7843C22.0203 23.0719 22.4912 23.0719 22.7816 22.7843C23.0728 22.5039 23.0728 22.0366 22.7816 21.749Z" fill="white"/>
</g>
</svg>
