<svg width="40" height="40" viewBox="0 0 40 40" fill="none" xmlns="http://www.w3.org/2000/svg">
<g id="socials">
<rect id="Rectangle 1" x="-0.000244141" width="40" height="40" rx="20" fill="#7C509A"/>
<path id="Vector" d="M26.2537 9.54591C22.4422 8.81803 18.484 8.81803 14.6725 9.54591C12.9867 9.90986 10.861 11.9479 10.4945 13.5493C9.83483 16.6792 9.83483 19.8819 10.4945 23.0118C10.9343 24.6131 13.06 26.6512 14.6725 27.0152C14.7458 27.0152 14.8191 27.0879 14.8191 27.1607V31.7464C14.8191 31.9648 15.1123 32.1103 15.2589 31.892L17.4579 29.6355C17.4579 29.6355 19.217 27.8158 19.5102 27.5247C19.5102 27.5247 19.5835 27.4519 19.6568 27.4519C21.8558 27.5247 24.128 27.3063 26.327 26.9424C28.0128 26.5784 30.1385 24.5403 30.505 22.939C31.1647 19.8091 31.1647 16.6064 30.505 13.4765C30.0652 11.9479 27.9395 9.90986 26.2537 9.54591ZM26.327 23.2302C25.9605 23.958 25.5207 24.5403 24.7877 24.9043C24.5678 24.9771 24.3479 25.0499 24.128 25.1227C23.8348 25.0499 23.6149 24.9771 23.395 24.9043C21.0495 23.958 18.8505 22.6478 17.0914 20.7553C16.1385 19.6635 15.3322 18.4261 14.6725 17.1159C14.3793 16.4608 14.0861 15.8785 13.8662 15.2234C13.6464 14.6411 14.0128 14.0588 14.3793 13.6221C14.7458 13.1853 15.1856 12.8942 15.6987 12.6758C16.0652 12.4575 16.4317 12.603 16.7249 12.8942C17.3113 13.6221 17.8977 14.35 18.3375 15.1506C18.6306 15.6601 18.5573 16.2425 18.0443 16.6064C17.8977 16.6792 17.8244 16.752 17.6778 16.8976C17.6045 16.9703 17.4579 17.0431 17.3846 17.1887C17.238 17.4071 17.238 17.6254 17.3113 17.8438C17.8977 19.5179 18.9971 20.8281 20.683 21.556C20.9762 21.7016 21.1961 21.7744 21.5626 21.7744C22.0757 21.7016 22.2956 21.1193 22.6621 20.8281C23.0286 20.537 23.4683 20.537 23.9081 20.7553C24.2746 20.9737 24.6411 21.2649 25.0809 21.556C25.4474 21.8472 25.8139 22.0655 26.1804 22.3567C26.4003 22.5023 26.4736 22.8662 26.327 23.2302ZM23.2484 17.771C23.1018 17.771 23.1751 17.771 23.2484 17.771C22.9553 17.771 22.882 17.6254 22.8087 17.4071C22.8087 17.2615 22.8087 17.0431 22.7354 16.8976C22.6621 16.6064 22.5155 16.3152 22.2223 16.0969C22.0757 16.0241 21.9291 15.9513 21.7825 15.8785C21.5626 15.8057 21.416 15.8057 21.1961 15.8057C20.9762 15.7329 20.9029 15.5874 20.9029 15.369C20.9029 15.2234 21.1228 15.0778 21.2694 15.0778C22.4422 15.1506 23.3217 15.8057 23.4683 17.1887C23.4683 17.2615 23.4683 17.4071 23.4683 17.4799C23.4683 17.6254 23.395 17.771 23.2484 17.771ZM22.5155 14.5683C22.149 14.4227 21.7825 14.2772 21.3427 14.2044C21.1961 14.2044 20.9762 14.1316 20.8296 14.1316C20.6097 14.1316 20.4631 13.986 20.5364 13.7676C20.5364 13.5493 20.683 13.4037 20.9029 13.4765C21.6359 13.5493 22.2956 13.6949 22.9553 13.986C24.2746 14.6411 25.0076 15.7329 25.2275 17.1887C25.2275 17.2615 25.2275 17.3343 25.2275 17.4071C25.2275 17.5526 25.2275 17.6982 25.2275 17.9166C25.2275 17.9894 25.2275 18.0622 25.2275 18.135C25.1542 18.4261 24.6411 18.4989 24.5678 18.135C24.5678 18.0622 24.4945 17.9166 24.4945 17.8438C24.4945 17.1887 24.3479 16.5336 24.0547 15.9513C23.6149 15.2962 23.1018 14.8595 22.5155 14.5683ZM26.4736 18.9356C26.2537 18.9356 26.1071 18.7173 26.1071 18.4989C26.1071 18.0622 26.0338 17.6254 25.9605 17.1887C25.6673 14.8595 23.7615 12.967 21.4893 12.603C21.1228 12.5302 20.7563 12.5302 20.4631 12.4575C20.2432 12.4575 19.95 12.4575 19.8767 12.1663C19.8034 11.9479 20.0233 11.7296 20.2432 11.7296C20.3165 11.7296 20.3898 11.7296 20.3898 11.7296C20.5364 11.7296 23.395 11.8024 20.3898 11.7296C23.4683 11.8024 26.0338 13.8404 26.5469 16.8976C26.6202 17.4071 26.6935 17.9166 26.6935 18.4989C26.8401 18.7173 26.6935 18.9356 26.4736 18.9356Z" fill="white"/>
</g>
</svg>
