<svg width="40" height="40" viewBox="0 0 40 40" fill="none" xmlns="http://www.w3.org/2000/svg">
<g id="socials">
<rect id="Rectangle 1" x="-0.000244141" width="40" height="40" rx="20" fill="#48C95F"/>
<path id="Vector" d="M27.9266 12.0625C25.951 10.0937 23.3168 9 20.5363 9C14.7559 9 10.0729 13.6667 10.0729 19.4271C10.0729 21.25 10.5851 23.0729 11.4632 24.6042L9.99976 30L15.5607 28.5417C17.0973 29.3438 18.7802 29.7812 20.5363 29.7812C26.3168 29.7812 30.9998 25.1146 30.9998 19.3542C30.9266 16.6563 29.9022 14.0312 27.9266 12.0625ZM25.5851 23.1458C25.3656 23.7292 24.3412 24.3125 23.829 24.3854C23.39 24.4583 22.8046 24.4583 22.2193 24.3125C21.8534 24.1667 21.3412 24.0208 20.7559 23.7292C18.1217 22.6354 16.4388 20.0104 16.2924 19.7917C16.1461 19.6458 15.1949 18.4062 15.1949 17.0937C15.1949 15.7812 15.8534 15.1979 16.0729 14.9062C16.2924 14.6146 16.5851 14.6146 16.8046 14.6146C16.951 14.6146 17.1705 14.6146 17.3168 14.6146C17.4632 14.6146 17.6827 14.5417 17.9022 15.0521C18.1217 15.5625 18.6339 16.875 18.7071 16.9479C18.7802 17.0938 18.7802 17.2396 18.7071 17.3854C18.6339 17.5312 18.5607 17.6771 18.4144 17.8229C18.268 17.9687 18.1217 18.1875 18.0485 18.2604C17.9022 18.4062 17.7559 18.5521 17.9022 18.7708C18.0485 19.0625 18.5607 19.8646 19.3656 20.5937C20.39 21.4687 21.1949 21.7604 21.4876 21.9063C21.7802 22.0521 21.9266 21.9792 22.0729 21.8333C22.2193 21.6875 22.7315 21.1042 22.8778 20.8125C23.0241 20.5208 23.2437 20.5938 23.4632 20.6667C23.6827 20.7396 24.9998 21.3958 25.2193 21.5417C25.5119 21.6875 25.6583 21.7604 25.7315 21.8333C25.8046 22.0521 25.8046 22.5625 25.5851 23.1458Z" fill="white"/>
</g>
</svg>
